<?xml version="1.0" standalone="no"?>
<!DOCTYPE svg PUBLIC "-//W3C//DTD SVG 20010904//EN"
 "http://www.w3.org/TR/2001/REC-SVG-20010904/DTD/svg10.dtd">
<svg version="1.0" xmlns="http://www.w3.org/2000/svg"
 width="800.000000pt" height="800.000000pt" viewBox="0 0 800.000000 800.000000"
 preserveAspectRatio="xMidYMid meet">

<g transform="translate(0.000000,800.000000) scale(0.100000,-0.100000)"
fill="#000000" stroke="none">
<path d="M3825 7163 c-959 -58 -1804 -507 -2369 -1260 -344 -459 -543 -959
-618 -1558 -16 -129 -16 -561 0 -690 75 -599 274 -1099 618 -1558 703 -936
1856 -1404 3021 -1226 832 126 1597 598 2090 1289 207 290 377 643 473 986
127 454 147 996 54 1475 -97 501 -336 1004 -668 1404 -107 129 -311 330 -446
438 -293 236 -644 428 -1000 547 -347 115 -797 175 -1155 153z m456 -153
c1357 -135 2467 -1172 2688 -2510 24 -148 44 -340 36 -348 -3 -3 -36 24 -73
60 -66 65 -181 152 -190 144 -2 -3 14 -26 36 -53 84 -102 135 -226 154 -380
14 -106 2 -237 -32 -368 -23 -86 -78 -225 -88 -224 -4 0 -21 21 -38 47 -46 71
-135 136 -287 212 -76 38 -143 70 -149 72 -7 3 1 20 20 44 17 21 36 59 41 84
12 54 14 147 3 154 -4 2 -39 -4 -77 -15 -95 -28 -221 -22 -324 14 -274 96
-571 409 -866 911 -39 66 -95 147 -125 180 -187 204 -567 373 -854 381 -130 3
-154 15 -278 139 l-96 96 -68 1 c-101 0 -199 22 -284 62 -85 40 -183 63 -223
53 -39 -9 -83 -76 -104 -157 -16 -65 -22 -73 -70 -109 -62 -48 -94 -87 -128
-163 -15 -31 -32 -60 -39 -64 -26 -15 -56 -78 -56 -116 0 -21 7 -54 15 -74 15
-35 14 -41 -12 -117 -25 -71 -28 -96 -28 -201 0 -121 12 -171 38 -162 7 2 15
31 19 65 9 78 36 139 82 185 45 46 62 47 39 5 -22 -42 -24 -178 -4 -226 12
-28 37 -52 55 -52 3 0 6 16 6 35 0 94 37 192 95 250 32 32 102 75 122 75 5 0
16 -21 25 -47 22 -61 81 -138 138 -181 143 -108 184 -552 65 -707 -18 -24 -56
-50 -123 -82 -121 -59 -209 -142 -308 -293 -61 -93 -75 -108 -124 -133 -30
-15 -73 -28 -95 -30 l-40 -2 2 80 c1 52 8 100 22 139 20 57 20 58 2 42 -25
-22 -85 -138 -102 -194 -21 -72 -33 -33 -38 121 l-4 142 -23 -69 c-63 -186
-73 -384 -26 -541 26 -86 121 -234 195 -302 63 -58 119 -77 216 -71 67 4 92
11 166 46 48 23 135 73 194 112 58 38 122 76 142 84 131 55 341 33 526 -55 47
-23 76 -46 124 -102 77 -90 129 -127 180 -127 79 0 146 -37 246 -133 184 -178
227 -291 128 -333 -48 -20 -84 -18 -157 9 -124 45 -285 166 -490 369 -102 100
-129 122 -124 100 12 -51 124 -270 205 -399 45 -72 90 -156 102 -189 76 -216
-13 -477 -193 -570 -26 -13 -52 -24 -57 -24 -5 0 -22 24 -39 53 -47 84 -145
159 -236 181 -25 6 -28 5 -21 -11 51 -124 67 -277 41 -395 -29 -129 -123 -295
-218 -384 l-33 -31 -115 23 c-467 96 -920 308 -1290 604 -138 111 -366 338
-470 470 -366 460 -579 980 -651 1585 -15 129 -15 481 0 610 72 605 285 1125
651 1585 104 132 332 359 470 470 450 360 992 583 1580 649 109 12 481 13 601
1z m225 -1981 c63 -24 163 -124 144 -143 -20 -20 -140 -12 -197 13 -49 22
-153 117 -153 140 0 27 123 21 206 -10z"/>
<path d="M4100 6787 c0 -8 11 -18 24 -21 13 -3 26 -12 29 -19 9 -23 -43 -441
-56 -449 -6 -4 -22 -8 -34 -8 -13 0 -23 -6 -23 -13 0 -9 47 -18 168 -30 92
-10 183 -21 203 -24 35 -5 35 -5 46 44 7 26 15 56 18 66 12 30 -14 19 -55 -24
l-39 -42 -62 7 c-96 11 -112 20 -106 59 4 17 14 109 23 202 18 182 28 215 69
215 14 0 25 6 25 14 0 9 -24 15 -87 20 -49 3 -100 9 -115 12 -21 5 -28 3 -28
-9z"/>
<path d="M3664 6774 c-23 -8 -60 -30 -82 -49 -139 -120 -112 -376 48 -458 53
-28 59 -29 155 -23 127 7 173 20 179 49 24 113 24 117 5 117 -11 0 -19 -5 -19
-11 0 -6 -8 -27 -17 -46 -18 -39 -77 -73 -128 -73 -118 0 -212 134 -203 286 6
86 29 130 86 162 58 32 140 31 181 -3 16 -14 33 -35 36 -45 4 -11 13 -20 22
-20 16 0 16 3 -8 93 l-10 37 -102 -1 c-62 0 -118 -6 -143 -15z"/>
<path d="M4600 6731 c0 -7 11 -22 25 -34 l25 -22 -55 -165 c-57 -172 -65 -223
-41 -268 43 -82 200 -148 294 -123 72 20 105 73 172 276 23 72 46 134 51 139
4 5 20 9 35 10 51 2 34 21 -39 44 -39 13 -78 25 -84 28 -23 10 -14 -20 12 -41
l26 -20 -49 -145 c-70 -207 -88 -236 -153 -246 -45 -7 -126 23 -151 57 -37 49
-33 91 25 264 l53 160 37 3 c20 2 37 7 37 12 0 4 -44 23 -97 41 -54 17 -104
34 -110 37 -7 2 -13 -1 -13 -7z"/>
<path d="M2915 6573 c-40 -9 -265 -106 -265 -115 0 -4 18 -8 39 -8 l39 0 88
-205 87 -205 -22 -24 c-13 -14 -22 -29 -20 -34 5 -11 222 81 227 97 2 7 -12
10 -44 9 l-47 -3 -38 85 c-55 126 -45 129 112 30 62 -38 122 -70 135 -70 34 0
134 41 134 55 0 8 -14 12 -37 12 -30 -1 -60 13 -138 63 -55 34 -102 64 -104
66 -3 3 5 22 17 43 65 116 -30 235 -163 204z m40 -75 c35 -31 56 -93 43 -130
-9 -25 -62 -68 -85 -68 -10 0 -97 189 -90 196 1 2 14 7 27 13 41 16 77 12 105
-11z"/>
<path d="M5276 6475 c-2 -7 4 -21 15 -31 10 -9 19 -21 19 -25 0 -13 -221 -363
-237 -376 -10 -8 -23 -9 -39 -3 -16 6 -26 5 -30 -2 -4 -7 -3 -13 2 -15 5 -2
66 -38 134 -80 117 -73 128 -78 190 -81 60 -4 69 -2 98 23 61 51 64 141 7 195
-33 31 -32 43 4 35 95 -21 165 93 111 180 -26 42 -266 200 -274 180z m166
-142 c35 -39 40 -59 24 -97 -17 -40 -51 -66 -88 -66 -28 0 -78 19 -78 29 0 12
100 161 108 161 4 0 20 -12 34 -27z m-128 -192 c67 -45 83 -111 41 -174 -28
-40 -59 -53 -102 -42 -34 8 -83 43 -83 58 0 15 99 177 108 177 4 0 20 -9 36
-19z"/>
<path d="M2436 6331 c-10 -10 -75 -61 -146 -112 -123 -90 -152 -126 -81 -101
31 11 32 11 99 -81 164 -223 192 -262 192 -272 0 -6 -7 -21 -16 -33 -36 -52 4
-35 114 46 64 49 138 103 165 121 26 17 47 33 47 35 0 13 -47 114 -55 117 -6
2 -12 -21 -15 -52 -3 -37 -12 -65 -24 -78 -25 -27 -106 -81 -122 -81 -11 0
-124 142 -124 157 0 4 23 24 51 43 42 28 53 32 67 22 39 -28 68 -27 47 2 -6 7
-28 39 -49 70 -26 38 -43 53 -49 47 -7 -7 -7 -19 1 -36 7 -14 12 -27 12 -29 0
-2 -24 -22 -54 -44 l-54 -41 -56 74 c-31 41 -56 79 -56 84 0 17 112 91 138 91
14 0 40 -5 59 -12 50 -18 51 -3 2 41 -49 45 -68 49 -93 22z"/>
<path d="M2017 5997 c-9 -14 -41 -52 -73 -86 -46 -50 -53 -62 -39 -67 9 -4 21
-2 28 5 6 6 17 11 25 11 13 0 152 -109 152 -119 0 -4 -32 -43 -71 -89 l-71
-83 -67 58 c-36 31 -70 60 -75 65 -6 4 -5 18 3 34 22 49 -4 47 -44 -3 -21 -26
-54 -64 -73 -84 -37 -40 -29 -62 13 -35 24 16 26 14 97 -45 40 -34 119 -101
175 -150 98 -85 102 -90 91 -114 -17 -38 4 -54 26 -20 9 14 39 51 67 81 27 30
49 59 49 64 0 13 -27 13 -35 0 -13 -21 -40 -8 -116 56 l-78 66 61 72 c33 39
66 77 74 85 11 12 24 4 86 -49 40 -35 77 -67 82 -72 6 -4 5 -18 -3 -34 -20
-44 3 -49 35 -7 15 21 48 59 72 85 46 49 44 65 -5 46 -30 -11 -34 -9 -129 72
-234 198 -244 208 -232 236 17 36 -4 53 -25 21z"/>
<path d="M1485 5242 c-59 -117 -105 -215 -103 -216 1 -1 24 -19 51 -40 39 -31
48 -35 53 -21 4 9 -1 23 -9 33 -30 33 -30 68 -3 127 l25 56 203 -103 203 -103
-3 -32 c-4 -59 21 -35 69 63 46 95 47 125 4 84 l-23 -21 -201 100 c-110 56
-201 104 -201 106 0 3 9 23 20 44 26 52 65 81 106 81 55 0 40 24 -25 41 l-59
15 -107 -214z"/>
<path d="M1314 4843 c-3 -16 -12 -52 -19 -80 -9 -38 -10 -55 -2 -60 6 -3 13
-1 15 5 2 6 11 21 20 32 l17 21 143 -32 c78 -18 142 -35 142 -39 0 -4 -88 -49
-195 -101 l-195 -93 -11 -41 c-5 -22 -14 -53 -19 -69 -13 -37 -13 -36 4 -36 7
0 21 11 29 24 l16 23 210 -47 c115 -26 217 -53 226 -60 19 -15 19 -50 1 -93
-12 -31 -30 -41 -257 -139 -275 -119 -284 -126 -189 -163 30 -12 144 -57 252
-99 180 -71 197 -79 207 -106 19 -55 30 -33 28 55 -1 56 -6 85 -13 85 -7 0
-15 -11 -18 -25 -8 -31 -15 -31 -93 -3 l-63 22 0 87 0 87 65 26 c36 14 68 26
70 26 3 0 10 -11 15 -25 21 -56 31 -24 30 103 -1 86 4 146 14 185 9 32 16 65
16 72 0 24 -20 17 -30 -10 -5 -14 -17 -25 -28 -25 -10 0 -89 16 -175 35 -86
19 -159 35 -162 35 -29 0 31 34 229 130 202 97 258 131 243 146 -1 1 -108 26
-237 55 -129 29 -241 57 -247 62 -7 5 -13 20 -13 33 0 33 -18 30 -26 -3z m196
-934 c0 -53 -3 -70 -12 -67 -129 46 -168 62 -164 65 5 5 159 72 169 72 4 1 7
-31 7 -70z"/>
<path d="M1324 3656 c-40 -18 -70 -57 -79 -103 -9 -49 43 -323 62 -323 8 0 13
12 13 30 0 40 3 41 244 91 190 39 200 40 213 23 7 -10 13 -21 13 -26 0 -4 7
-8 16 -8 13 0 15 6 9 28 -4 15 -13 59 -21 97 -22 110 -24 115 -34 115 -6 0
-10 -15 -10 -32 0 -49 -11 -59 -81 -74 -103 -22 -104 -21 -117 38 -17 70 -47
115 -93 138 -44 23 -91 25 -135 6z m163 -118 c28 -32 46 -87 30 -93 -7 -3 -57
-14 -111 -25 -110 -22 -116 -21 -116 36 0 35 31 81 64 94 11 5 42 9 67 9 35 1
50 -4 66 -21z"/>
</g>
</svg>
