<?xml version="1.0" encoding="utf-8"?>
<!-- Generator: Adobe Illustrator 24.3.0, SVG Export Plug-In . SVG Version: 6.00 Build 0)  -->
<svg version="1.1" id="Capa_1" xmlns="http://www.w3.org/2000/svg" xmlns:xlink="http://www.w3.org/1999/xlink" x="0px" y="0px"
	 viewBox="0 0 100 100" style="enable-background:new 0 0 100 100;" xml:space="preserve">
<style type="text/css">
	.st0{fill:none;stroke:#000000;stroke-width:4;stroke-miterlimit:10;}
</style>
<g>
	<path d="M74.19,26.5c-3.5-2.4-7.38-4.24-11.14-6.23c-0.51-0.27-1.43-0.26-1.92,0.03c-1.78,1.06-3.64,2.11-5.08,3.55
		c-0.82,0.82-1.22,2.4-1.23,3.63c-0.02,2.75,5.06,7.62,7.81,7.78c0.36,0.02,0.73-0.03,1.1-0.02c0.49,0.02,0.97,0.07,1.45,0.12
		c1.75,0.16,2.41,1.05,2.15,2.82c-1.03,6.79-5.39,11.24-10.37,15.39c-0.27-0.32-0.43-0.43-0.48-0.58c-1.64-4.76-5.24-7.12-9.89-8.36
		c-0.97-0.26-1.9-1.04-2.63-1.8c-1.95-2.01-3.65-4.29-5.71-6.19c-2.37-2.19-4.95-3.86-7.87-4.61c-0.48,0.23-0.93,0.5-1.36,0.8
		c3.53,0.45,6.72,2.28,9.63,5.14c1.13,1.11,2.19,2.3,3.16,3.56c0.46,0.59,0.63,1.41,0.93,2.13L42.1,44.1
		c-0.49-0.5-1.04-0.97-1.47-1.52c-3.06-3.94-8.51-6.26-12.7-5.04c0.46,0.04,0.92,0.12,1.38,0.13c4.87,0.13,8.75,2.03,11.17,6.39
		c0.71,1.28,1.83,1.25,2.97,1.34c3.43,0.26,6.58,1.27,9.26,3.5c1.91,1.59,2.68,3.48,2.31,5.99c-1.42-1.28-2.73-2.46-4.04-3.65
		c-0.12,0.11-0.24,0.23-0.36,0.34c0.93,1.03,1.83,2.09,2.78,3.09c1.26,1.31,1.85,2.72,0.81,4.44c-0.03,0.05-0.08,0.12-0.07,0.17
		c0.42,2.38-0.77,3.25-3.28,2.96c1.09,1.99,4.59,2.07,3.31,5.42c-1.64-1.24-3.15-2.39-5.02-3.81c0.77,2.58,3.17,4.03,2.66,6.58
		c-3.78,1.27-9.77-3.26-11.61-9.02c3.77-0.86,8.39,1.37,11-3.06c-2.59-0.17-5.45-0.27-8.28-0.58c-2.84-0.32-5.7-0.75-8.42-2.76
		c3.6-1.72,6.7-0.05,9.95-0.18c-0.35-0.2-0.69-0.49-1.06-0.58c-2.85-0.63-5.71-1.22-8.57-1.82c-0.95-0.2-2.02-0.21-2.81-0.68
		c-0.73-0.44-1.54-1.35-1.61-2.12c-0.06-0.65,0.75-1.74,1.43-2.01c1.68-0.68,3.51-0.95,5.25-1.48c0.91-0.27,1.77-0.72,2.59-1.35
		c-2.94-0.67-5.23-3.11-8.8-2.51c1.04,0.56,1.75,0.95,3,1.62c-1.89,0.31-3.27,0.58-4.65,0.75c-3.15,0.39-5.84,1.56-8.3,3.69
		c-0.01,0.25-0.02,0.51-0.02,0.76c-0.01,6.64,2.4,12.41,6.01,17.68c0.96-0.93,1.87-1.96,2.71-3.12c3.05,5.99,8.13,8.46,13.85,9.92
		c6.89,1.76,14.08,2.38,20.64,5.46c1.34,0.63,2.6,0.31,3.05-1.49c0.63-2.54,2.16-4.52,3.82-6.55c1.63-1.99,2.88-4.39,3.84-6.79
		c1.86-4.65,1.92-9.65,2.22-14.59c0.27-4.38,0.29-8.81,0.95-13.14C78.64,32.26,77.56,28.81,74.19,26.5z M57.51,64.06
		c-0.03-0.16-0.06-0.32-0.09-0.48c0.65-0.13,1.39-0.53,1.94-0.35c1.56,0.5,1.66,1.98,2.1,3.49C59.98,65.71,58.74,64.88,57.51,64.06z
		 M76.44,37.91c-0.29,4.01-0.48,8.03-0.8,12.04c-0.31,3.82-0.35,7.72-1.22,11.43c-0.63,2.69-2.24,5.22-3.74,7.61
		c-1.45,2.31-3.34,4.35-5,6.53c-0.69,0.9-1.34,1.2-2.32,0.05c2.93-3.12,6.76-5.57,7.99-9.95c-0.16-0.18-0.32-0.37-0.48-0.55
		c-0.69,0.47-1.37,0.94-2.07,1.39c-1.16,0.75-2.26,1.69-3.53,2.17c-0.81,0.3-1.87-0.1-2.76-0.57c1.03-0.16,2.16-0.11,3.07-0.54
		c0.91-0.43,1.6-1.32,2.39-2.01c-0.14-0.23-0.28-0.47-0.41-0.7c-0.92,0.39-1.88,0.71-2.75,1.18c-1.37,0.75-2.08,0.63-2.68-1.04
		c-0.46-1.28-1.48-2.53-2.58-3.36c-1.32-1-1.81-2.07-1.5-3.59c0.49-2.45,1.71-4.47,4.07-6.39v7.7c0.22,0.03,0.43,0.06,0.65,0.09
		c0.72-3.31,1.45-6.62,2.17-9.93c0.29,0.02,0.57,0.03,0.86,0.05c0.19,2.25,0.38,4.51,0.57,6.76c0.2,0.02,0.41,0.03,0.61,0.05
		c0.55-4.02,1.11-8.04,1.66-12.07c1.26,2.99,0.45,6.02,0.75,9.15c0.24-0.59,0.65-1.17,0.69-1.78c0.17-2.61,0.62-5.28,0.25-7.83
		c-0.52-3.6,0.5-6.21,3.43-8.21c0.4-0.27,0.72-0.64,1.09-0.96c-0.77-1.51-1.96-1.77-3.51-1.78c-1.41,0-2.8-0.54-4.22-0.77
		c-0.54-0.09-1.13-0.03-1.67,0.1c-0.67,0.16-1.3,0.47-2.13,0.79c-0.43-2.57,2.59-2.67,2.74-5.14c-1.92,1.07-3.56,1.99-5.46,3.05
		c-0.35-3.43,3.86-3.7,3.46-7.1c-2.31,2.19-4.36,4.14-6.55,6.22c-0.55-2.18,0.82-4.34,3.21-5.62c0.81-0.43,1.74-0.74,1.13-2.29
		c-1.8,1.39-3.52,2.72-5.23,4.04c-0.14-0.12-0.29-0.23-0.43-0.35c0.23-0.5,0.36-1.08,0.7-1.49c0.46-0.56,1.07-1,1.6-1.5
		c2-1.87,3.99-2.37,6.49-0.62c2.08,1.46,4.54,2.37,6.71,3.72c2.6,1.62,4.8,3.76,5.2,6.95C77.1,34.51,76.56,36.22,76.44,37.91z"/>
	<path d="M73.28,46.27c0.38,2.9,0.76,5.8,1.14,8.7c-0.15,0.02-0.31,0.04-0.46,0.06c-0.38-2.91-0.76-5.82-1.13-8.73
		C72.97,46.29,73.12,46.28,73.28,46.27z"/>
</g>
<circle class="st0" cx="49.53" cy="49.71" r="43.12"/>
</svg>
